<?xml version="1.0" encoding="iso-8859-1"?>
<!-- Uploaded to: SVG Repo, www.svgrepo.com, Generator: SVG Repo Mixer Tools -->
<svg version="1.1" id="Capa_1" xmlns="http://www.w3.org/2000/svg" xmlns:xlink="http://www.w3.org/1999/xlink" 
	 viewBox="0 0 470 470" xml:space="preserve">
<g>
	<path style="fill:#FF6E1D;" d="M370,37.5c0-4.143,3.357-7.5,7.5-7.5s7.5,3.357,7.5,7.5h15c0-4.143,3.357-7.5,7.5-7.5
		s7.5,3.357,7.5,7.5v395c0,4.143-3.357,7.5-7.5,7.5s-7.5-3.357-7.5-7.5h-15c0,4.143-3.357,7.5-7.5,7.5s-7.5-3.357-7.5-7.5h-15V455
		h75V15h-52.5c-4.143,0-7.5-3.357-7.5-7.5h-15v30H370z"/>
	<rect x="385" y="37.5" style="fill:#98D9D5;" width="15" height="395"/>
	<path style="fill:#082947;" d="M407.5,440c4.143,0,7.5-3.357,7.5-7.5v-395c0-4.143-3.357-7.5-7.5-7.5s-7.5,3.357-7.5,7.5v395
		C400,436.643,403.357,440,407.5,440z"/>
	<rect x="355" y="37.5" style="fill:#C1E8E6;" width="15" height="395"/>
	<path style="fill:#082947;" d="M377.5,440c4.143,0,7.5-3.357,7.5-7.5v-395c0-4.143-3.357-7.5-7.5-7.5s-7.5,3.357-7.5,7.5v395
		C370,436.643,373.357,440,377.5,440z"/>
	<path style="fill:#FFCC75;" d="M340,455V15H140v92.5c0,4.143-3.357,7.5-7.5,7.5v15c4.143,0,7.5,3.357,7.5,7.5V455H340z"/>
	<path style="fill:#FF6E1D;" d="M125,107.5V15H62.5C50.094,15,40,25.094,40,37.5v395c0,12.406,10.094,22.5,22.5,22.5H125V137.5
		c0-4.143,3.357-7.5,7.5-7.5v-15C128.357,115,125,111.643,125,107.5z"/>
	<path style="fill:#082947;" d="M437.5,0h-60c-4.143,0-7.5,3.357-7.5,7.5s3.357,7.5,7.5,7.5H430v440h-75V7.5
		c0-4.143-3.357-7.5-7.5-7.5h-285C41.822,0,25,16.822,25,37.5v395c0,20.678,16.822,37.5,37.5,37.5h375c4.143,0,7.5-3.357,7.5-7.5
		V7.5C445,3.357,441.643,0,437.5,0z M132.5,130c-4.143,0-7.5,3.357-7.5,7.5V455H62.5C50.094,455,40,444.906,40,432.5v-395
		C40,25.094,50.094,15,62.5,15H125v92.5c0,4.143,3.357,7.5,7.5,7.5s7.5-3.357,7.5-7.5V15h200v440H140V137.5
		C140,133.357,136.643,130,132.5,130z"/>
</g>
</svg>